<?xml version="1.0" encoding="UTF-8"?>
<svg width="1600" height="1200" xmlns="http://www.w3.org/2000/svg">
  <defs>
    <style>
      .entity { fill: #e8f4fd; stroke: #1976d2; stroke-width: 2; }
      .attribute { fill: #fff3e0; stroke: #f57c00; stroke-width: 1.5; }
      .key-attribute { fill: #e8f5e8; stroke: #388e3c; stroke-width: 2; }
      .relationship { fill: #fce4ec; stroke: #c2185b; stroke-width: 2; }
      .text { font-family: 'Microsoft YaHei', Arial, sans-serif; font-size: 11px; text-anchor: middle; dominant-baseline: middle; }
      .title { font-family: 'Microsoft YaHei', Arial, sans-serif; font-size: 18px; font-weight: bold; text-anchor: middle; dominant-baseline: middle; }
      .subtitle { font-family: 'Microsoft YaHei', Arial, sans-serif; font-size: 14px; font-weight: bold; text-anchor: middle; dominant-baseline: middle; }
      .line { stroke: #333; stroke-width: 1.5; fill: none; }
      .module-border { fill: none; stroke: #666; stroke-width: 2; stroke-dasharray: 10,5; }
    </style>
  </defs>
  
  <!-- 标题 -->
  <text x="800" y="30" class="title">重庆旅游管理系统 - 综合ER图</text>
  
  <!-- 用户管理模块区域 -->
  <rect x="50" y="70" width="300" height="200" class="module-border"/>
  <text x="200" y="90" class="subtitle">用户管理模块</text>
  
  <!-- 管理员实体 -->
  <rect x="70" y="110" width="100" height="50" class="entity" rx="3"/>
  <text x="120" y="130" class="text">管理员</text>
  <text x="120" y="145" class="text" font-size="9">(sys_user)</text>
  
  <!-- 用户实体 -->
  <rect x="220" y="110" width="100" height="50" class="entity" rx="3"/>
  <text x="270" y="130" class="text">用户</text>
  <text x="270" y="145" class="text" font-size="9">(sys_user)</text>
  
  <!-- 用户主要属性 -->
  <ellipse cx="120" cy="80" rx="20" ry="10" class="key-attribute"/>
  <text x="120" y="80" class="text" font-size="9">user_id</text>
  
  <ellipse cx="180" cy="80" rx="25" ry="10" class="attribute"/>
  <text x="180" y="80" class="text" font-size="9">user_name</text>
  
  <ellipse cx="270" cy="80" rx="20" ry="10" class="attribute"/>
  <text x="270" y="80" class="text" font-size="9">nick_name</text>
  
  <ellipse cx="120" cy="200" rx="20" ry="10" class="attribute"/>
  <text x="120" y="200" class="text" font-size="9">password</text>
  
  <ellipse cx="180" cy="200" rx="15" ry="10" class="attribute"/>
  <text x="180" y="200" class="text" font-size="9">email</text>
  
  <ellipse cx="270" cy="200" rx="15" ry="10" class="attribute"/>
  <text x="270" y="200" class="text" font-size="9">phone</text>
  
  <!-- 通知公告管理模块区域 -->
  <rect x="400" y="70" width="350" height="200" class="module-border"/>
  <text x="575" y="90" class="subtitle">通知公告管理模块</text>
  
  <!-- 通知公告实体 -->
  <rect x="500" y="130" width="150" height="60" class="entity" rx="3"/>
  <text x="575" y="155" class="text">通知公告</text>
  <text x="575" y="170" class="text" font-size="9">(sys_notice)</text>
  
  <!-- 通知公告属性 -->
  <ellipse cx="450" cy="110" rx="20" ry="10" class="key-attribute"/>
  <text x="450" y="110" class="text" font-size="9">notice_id</text>
  
  <ellipse cx="520" cy="100" rx="25" ry="10" class="attribute"/>
  <text x="520" y="100" class="text" font-size="9">notice_title</text>
  
  <ellipse cx="600" cy="100" rx="25" ry="10" class="attribute"/>
  <text x="600" y="100" class="text" font-size="9">notice_type</text>
  
  <ellipse cx="680" cy="110" rx="30" ry="10" class="attribute"/>
  <text x="680" y="110" class="text" font-size="9">notice_content</text>
  
  <ellipse cx="450" cy="220" rx="15" ry="10" class="attribute"/>
  <text x="450" y="220" class="text" font-size="9">status</text>
  
  <ellipse cx="520" cy="230" rx="25" ry="10" class="attribute"/>
  <text x="520" y="230" class="text" font-size="9">create_time</text>
  
  <ellipse cx="600" cy="230" rx="20" ry="10" class="attribute"/>
  <text x="600" y="230" class="text" font-size="9">create_by</text>
  
  <ellipse cx="680" cy="220" rx="25" ry="10" class="attribute"/>
  <text x="680" y="220" class="text" font-size="9">update_time</text>
  
  <!-- 景区管理模块区域 -->
  <rect x="800" y="70" width="350" height="200" class="module-border"/>
  <text x="975" y="90" class="subtitle">A级景区管理模块</text>
  
  <!-- A级景区实体 -->
  <rect x="850" y="130" width="150" height="60" class="entity" rx="3"/>
  <text x="925" y="155" class="text">A级景区</text>
  <text x="925" y="170" class="text" font-size="9">(tourism_scenic_spot)</text>
  
  <!-- 景区属性 -->
  <ellipse cx="800" cy="110" rx="15" ry="10" class="key-attribute"/>
  <text x="800" y="110" class="text" font-size="9">id</text>
  
  <ellipse cx="870" cy="100" rx="20" ry="10" class="attribute"/>
  <text x="870" y="100" class="text" font-size="9">name</text>
  
  <ellipse cx="925" cy="100" rx="15" ry="10" class="attribute"/>
  <text x="925" y="100" class="text" font-size="9">level</text>
  
  <ellipse cx="980" cy="100" rx="20" ry="10" class="attribute"/>
  <text x="980" y="100" class="text" font-size="9">address</text>
  
  <ellipse cx="1050" cy="110" rx="25" ry="10" class="attribute"/>
  <text x="1050" y="110" class="text" font-size="9">ticket_price</text>
  
  <ellipse cx="800" cy="220" rx="25" ry="10" class="attribute"/>
  <text x="800" y="220" class="text" font-size="9">description</text>
  
  <ellipse cx="870" cy="230" rx="30" ry="10" class="attribute"/>
  <text x="870" y="230" class="text" font-size="9">collection_count</text>
  
  <ellipse cx="980" cy="230" rx="25" ry="10" class="attribute"/>
  <text x="980" y="230" class="text" font-size="9">create_time</text>
  
  <ellipse cx="1050" cy="220" rx="20" ry="10" class="attribute"/>
  <text x="1050" y="220" class="text" font-size="9">status</text>
  
  <!-- 场馆管理模块区域 -->
  <rect x="1200" y="70" width="350" height="200" class="module-border"/>
  <text x="1375" y="90" class="subtitle">场馆管理模块</text>
  
  <!-- 场馆实体 -->
  <rect x="1250" y="130" width="150" height="60" class="entity" rx="3"/>
  <text x="1325" y="155" class="text">场馆</text>
  <text x="1325" y="170" class="text" font-size="9">(tourism_venue)</text>
  
  <!-- 场馆属性 -->
  <ellipse cx="1200" cy="110" rx="15" ry="10" class="key-attribute"/>
  <text x="1200" y="110" class="text" font-size="9">id</text>
  
  <ellipse cx="1270" cy="100" rx="20" ry="10" class="attribute"/>
  <text x="1270" y="100" class="text" font-size="9">name</text>
  
  <ellipse cx="1325" cy="100" rx="25" ry="10" class="attribute"/>
  <text x="1325" y="100" class="text" font-size="9">category</text>
  
  <ellipse cx="1380" cy="100" rx="20" ry="10" class="attribute"/>
  <text x="1380" y="100" class="text" font-size="9">address</text>
  
  <ellipse cx="1450" cy="110" rx="20" ry="10" class="attribute"/>
  <text x="1450" y="110" class="text" font-size="9">capacity</text>
  
  <ellipse cx="1200" cy="220" rx="30" ry="10" class="attribute"/>
  <text x="1200" y="220" class="text" font-size="9">booking_required</text>
  
  <ellipse cx="1270" cy="230" rx="30" ry="10" class="attribute"/>
  <text x="1270" y="230" class="text" font-size="9">collection_count</text>
  
  <ellipse cx="1380" cy="230" rx="25" ry="10" class="attribute"/>
  <text x="1380" y="230" class="text" font-size="9">create_time</text>
  
  <ellipse cx="1450" cy="220" rx="15" ry="10" class="attribute"/>
  <text x="1450" y="220" class="text" font-size="9">status</text>
  
  <!-- 特色活动管理模块区域 -->
  <rect x="50" y="320" width="700" height="350" class="module-border"/>
  <text x="400" y="340" class="subtitle">特色活动管理模块</text>
  
  <!-- 特色活动实体 -->
  <rect x="300" y="380" width="150" height="70" class="entity" rx="3"/>
  <text x="375" y="410" class="text">特色活动</text>
  <text x="375" y="430" class="text" font-size="9">(tourism_activity)</text>
  
  <!-- 活动报名实体 -->
  <rect x="100" y="520" width="150" height="60" class="entity" rx="3"/>
  <text x="175" y="545" class="text">活动报名</text>
  <text x="175" y="560" class="text" font-size="9">(tourism_activity_application)</text>
  
  <!-- 活动评论实体 -->
  <rect x="500" y="520" width="150" height="60" class="entity" rx="3"/>
  <text x="575" y="545" class="text">活动评论</text>
  <text x="575" y="560" class="text" font-size="9">(tourism_activity_comment)</text>
  
  <!-- 活动主要属性 -->
  <ellipse cx="250" cy="360" rx="15" ry="10" class="key-attribute"/>
  <text x="250" y="360" class="text" font-size="9">id</text>
  
  <ellipse cx="320" cy="350" rx="20" ry="10" class="attribute"/>
  <text x="320" y="350" class="text" font-size="9">name</text>
  
  <ellipse cx="375" cy="350" rx="25" ry="10" class="attribute"/>
  <text x="375" y="350" class="text" font-size="9">category</text>
  
  <ellipse cx="430" cy="350" rx="20" ry="10" class="attribute"/>
  <text x="430" y="350" class="text" font-size="9">organizer</text>
  
  <ellipse cx="500" cy="360" rx="25" ry="10" class="attribute"/>
  <text x="500" y="360" class="text" font-size="9">start_time</text>
  
  <ellipse cx="250" cy="480" rx="20" ry="10" class="attribute"/>
  <text x="250" y="480" class="text" font-size="9">end_time</text>
  
  <ellipse cx="320" cy="480" rx="30" ry="10" class="attribute"/>
  <text x="320" y="480" class="text" font-size="9">max_participants</text>
  
  <ellipse cx="430" cy="480" rx="15" ry="10" class="attribute"/>
  <text x="430" y="480" class="text" font-size="9">fee</text>
  
  <ellipse cx="500" cy="480" rx="25" ry="10" class="attribute"/>
  <text x="500" y="480" class="text" font-size="9">audit_status</text>
  
  <!-- 报名属性 -->
  <ellipse cx="50" cy="500" rx="15" ry="10" class="key-attribute"/>
  <text x="50" y="500" class="text" font-size="9">id</text>
  
  <ellipse cx="120" cy="490" rx="30" ry="10" class="attribute"/>
  <text x="120" y="490" class="text" font-size="9">applicant_name</text>
  
  <ellipse cx="200" cy="490" rx="30" ry="10" class="attribute"/>
  <text x="200" y="490" class="text" font-size="9">applicant_phone</text>
  
  <ellipse cx="50" cy="610" rx="15" ry="10" class="attribute"/>
  <text x="50" y="610" class="text" font-size="9">status</text>
  
  <ellipse cx="120" cy="620" rx="25" ry="10" class="attribute"/>
  <text x="120" y="620" class="text" font-size="9">audit_time</text>
  
  <ellipse cx="200" cy="620" rx="20" ry="10" class="attribute"/>
  <text x="200" y="620" class="text" font-size="9">auditor</text>
  
  <!-- 评论属性 -->
  <ellipse cx="450" cy="500" rx="15" ry="10" class="key-attribute"/>
  <text x="450" y="500" class="text" font-size="9">id</text>
  
  <ellipse cx="520" cy="490" rx="25" ry="10" class="attribute"/>
  <text x="520" y="490" class="text" font-size="9">user_name</text>
  
  <ellipse cx="600" cy="490" rx="20" ry="10" class="attribute"/>
  <text x="600" y="490" class="text" font-size="9">content</text>
  
  <ellipse cx="680" cy="500" rx="25" ry="10" class="attribute"/>
  <text x="680" y="500" class="text" font-size="9">parent_id</text>
  
  <ellipse cx="520" cy="610" rx="15" ry="10" class="attribute"/>
  <text x="520" y="610" class="text" font-size="9">status</text>
  
  <ellipse cx="600" cy="620" rx="25" ry="10" class="attribute"/>
  <text x="600" y="620" class="text" font-size="9">create_time</text>
  
  <!-- 用户收藏管理模块区域 -->
  <rect x="800" y="320" width="750" height="350" class="module-border"/>
  <text x="1175" y="340" class="subtitle">用户收藏管理模块</text>
  
  <!-- 用户收藏实体 -->
  <rect x="1050" y="450" width="180" height="70" class="entity" rx="3"/>
  <text x="1140" y="480" class="text">用户收藏</text>
  <text x="1140" y="500" class="text" font-size="9">(tourism_user_collection)</text>
  
  <!-- 收藏属性 -->
  <ellipse cx="1000" cy="430" rx="15" ry="10" class="key-attribute"/>
  <text x="1000" y="430" class="text" font-size="9">id</text>
  
  <ellipse cx="1070" cy="420" rx="20" ry="10" class="attribute"/>
  <text x="1070" y="420" class="text" font-size="9">user_id</text>
  
  <ellipse cx="1140" cy="420" rx="25" ry="10" class="attribute"/>
  <text x="1140" y="420" class="text" font-size="9">target_type</text>
  
  <ellipse cx="1210" cy="420" rx="20" ry="10" class="attribute"/>
  <text x="1210" y="420" class="text" font-size="9">target_id</text>
  
  <ellipse cx="1280" cy="430" rx="25" ry="10" class="attribute"/>
  <text x="1280" y="430" class="text" font-size="9">target_name</text>
  
  <ellipse cx="1000" cy="550" rx="25" ry="10" class="attribute"/>
  <text x="1000" y="550" class="text" font-size="9">create_time</text>
  
  <ellipse cx="1140" cy="560" rx="20" ry="10" class="attribute"/>
  <text x="1140" y="560" class="text" font-size="9">create_by</text>
  
  <ellipse cx="1280" cy="550" rx="25" ry="10" class="attribute"/>
  <text x="1280" y="550" class="text" font-size="9">update_time</text>
  
  <!-- 关系连接线和标注 -->
  <!-- 管理员管理通知公告 -->
  <line x1="170" y1="135" x2="500" y2="160" class="line"/>
  <polygon points="350,147 370,152 350,157 330,152" class="relationship"/>
  <text x="350" y="152" class="text" font-size="10">管理</text>
  <text x="180" y="145" class="text" font-size="9">1</text>
  <text x="490" y="170" class="text" font-size="9">N</text>
  
  <!-- 管理员管理景区 -->
  <line x1="170" y1="135" x2="850" y2="160" class="line"/>
  <polygon points="510,147 530,152 510,157 490,152" class="relationship"/>
  <text x="510" y="152" class="text" font-size="10">管理</text>
  <text x="180" y="145" class="text" font-size="9">1</text>
  <text x="840" y="170" class="text" font-size="9">N</text>
  
  <!-- 管理员管理场馆 -->
  <line x1="170" y1="135" x2="1250" y2="160" class="line"/>
  <polygon points="710,147 730,152 710,157 690,152" class="relationship"/>
  <text x="710" y="152" class="text" font-size="10">管理</text>
  <text x="180" y="145" class="text" font-size="9">1</text>
  <text x="1240" y="170" class="text" font-size="9">N</text>
  
  <!-- 场馆举办活动 -->
  <line x1="1250" y1="190" x2="450" y2="415" class="line"/>
  <polygon points="850,302 870,307 850,312 830,307" class="relationship"/>
  <text x="850" y="307" class="text" font-size="10">举办</text>
  <text x="1240" y="200" class="text" font-size="9">1</text>
  <text x="460" y="425" class="text" font-size="9">N</text>
  
  <!-- 用户报名活动 -->
  <line x1="270" y1="160" x2="175" y2="520" class="line"/>
  <polygon points="222,340 242,345 222,350 202,345" class="relationship"/>
  <text x="222" y="345" class="text" font-size="10">报名</text>
  <text x="280" y="170" class="text" font-size="9">N</text>
  <text x="165" y="530" class="text" font-size="9">N</text>
  
  <!-- 活动被报名 -->
  <line x1="300" y1="415" x2="250" y2="550" class="line"/>
  <polygon points="275,482 295,487 275,492 255,487" class="relationship"/>
  <text x="275" y="487" class="text" font-size="10">被报名</text>
  <text x="290" y="425" class="text" font-size="9">1</text>
  <text x="260" y="560" class="text" font-size="9">N</text>
  
  <!-- 用户评论活动 -->
  <line x1="270" y1="160" x2="575" y2="520" class="line"/>
  <polygon points="422,340 442,345 422,350 402,345" class="relationship"/>
  <text x="422" y="345" class="text" font-size="10">评论</text>
  <text x="280" y="170" class="text" font-size="9">N</text>
  <text x="565" y="530" class="text" font-size="9">N</text>
  
  <!-- 活动被评论 -->
  <line x1="450" y1="415" x2="500" y2="550" class="line"/>
  <polygon points="475,482 495,487 475,492 455,487" class="relationship"/>
  <text x="475" y="487" class="text" font-size="10">被评论</text>
  <text x="460" y="425" class="text" font-size="9">1</text>
  <text x="490" y="560" class="text" font-size="9">N</text>
  
  <!-- 用户收藏关系 -->
  <line x1="270" y1="160" x2="1050" y2="485" class="line"/>
  <polygon points="660,322 680,327 660,332 640,327" class="relationship"/>
  <text x="660" y="327" class="text" font-size="10">收藏</text>
  <text x="280" y="170" class="text" font-size="9">N</text>
  <text x="1040" y="495" class="text" font-size="9">N</text>
  
  <!-- 收藏景区 -->
  <line x1="1230" y1="485" x2="925" y2="190" class="line"/>
  <polygon points="1077,337 1097,342 1077,347 1057,342" class="relationship"/>
  <text x="1077" y="342" class="text" font-size="10">收藏景区</text>
  <text x="1240" y="495" class="text" font-size="9">N</text>
  <text x="915" y="200" class="text" font-size="9">N</text>
  
  <!-- 收藏场馆 -->
  <line x1="1230" y1="485" x2="1325" y2="190" class="line"/>
  <polygon points="1277,337 1297,342 1277,347 1257,342" class="relationship"/>
  <text x="1277" y="342" class="text" font-size="10">收藏场馆</text>
  <text x="1240" y="495" class="text" font-size="9">N</text>
  <text x="1315" y="200" class="text" font-size="9">N</text>
  
  <!-- 收藏活动 -->
  <line x1="1050" y1="485" x2="450" y2="415" class="line"/>
  <polygon points="750,450 770,455 750,460 730,455" class="relationship"/>
  <text x="750" y="455" class="text" font-size="10">收藏活动</text>
  <text x="1040" y="495" class="text" font-size="9">N</text>
  <text x="460" y="425" class="text" font-size="9">N</text>
  
  <!-- 属性连接线（简化显示） -->
  <!-- 用户属性连接 -->
  <line x1="120" y1="90" x2="120" y2="110" class="line"/>
  <line x1="180" y1="90" x2="150" y2="110" class="line"/>
  <line x1="270" y1="90" x2="270" y2="110" class="line"/>
  
  <!-- 通知公告属性连接 -->
  <line x1="470" y1="110" x2="500" y2="130" class="line"/>
  <line x1="520" y1="110" x2="530" y2="130" class="line"/>
  <line x1="600" y1="110" x2="590" y2="130" class="line"/>
  <line x1="660" y1="110" x2="650" y2="130" class="line"/>
  
  <!-- 景区属性连接 -->
  <line x1="815" y1="110" x2="850" y2="130" class="line"/>
  <line x1="870" y1="110" x2="880" y2="130" class="line"/>
  <line x1="925" y1="110" x2="925" y2="130" class="line"/>
  
  <!-- 场馆属性连接 -->
  <line x1="1215" y1="110" x2="1250" y2="130" class="line"/>
  <line x1="1270" y1="110" x2="1280" y2="130" class="line"/>
  <line x1="1325" y1="110" x2="1325" y2="130" class="line"/>
  
  <!-- 活动属性连接 -->
  <line x1="265" y1="360" x2="300" y2="380" class="line"/>
  <line x1="320" y1="360" x2="330" y2="380" class="line"/>
  <line x1="375" y1="360" x2="375" y2="380" class="line"/>
  
  <!-- 收藏属性连接 -->
  <line x1="1015" y1="430" x2="1050" y2="450" class="line"/>
  <line x1="1070" y1="430" x2="1080" y2="450" class="line"/>
  <line x1="1140" y1="430" x2="1140" y2="450" class="line"/>
  
  <!-- 系统统计信息 -->
  <rect x="50" y="720" width="1500" height="120" fill="none" stroke="#999" stroke-width="1"/>
  <text x="800" y="740" class="subtitle">系统实体统计</text>
  
  <text x="100" y="770" class="text" font-weight="bold">核心实体：</text>
  <text x="100" y="790" class="text">• 用户管理：sys_user (管理员、普通用户)</text>
  <text x="100" y="810" class="text">• 通知公告：sys_notice</text>
  <text x="100" y="830" class="text">• A级景区：tourism_scenic_spot</text>
  
  <text x="500" y="770" class="text" font-weight="bold">业务实体：</text>
  <text x="500" y="790" class="text">• 场馆信息：tourism_venue</text>
  <text x="500" y="810" class="text">• 特色活动：tourism_activity</text>
  <text x="500" y="830" class="text">• 活动报名：tourism_activity_application</text>
  
  <text x="900" y="770" class="text" font-weight="bold">关联实体：</text>
  <text x="900" y="790" class="text">• 活动评论：tourism_activity_comment</text>
  <text x="900" y="810" class="text">• 用户收藏：tourism_user_collection</text>
  <text x="900" y="830" class="text">• 总计：8个核心实体，支持完整业务流程</text>
  
  <text x="1300" y="770" class="text" font-weight="bold">关系特点：</text>
  <text x="1300" y="790" class="text">• 用户中心化设计</text>
  <text x="1300" y="810" class="text">• 多对多关系支持</text>
  <text x="1300" y="830" class="text">• 统一收藏管理</text>
  
  <!-- 图例 -->
  <rect x="50" y="880" width="1500" height="80" fill="none" stroke="#ccc" stroke-width="1"/>
  <text x="60" y="900" class="text" font-weight="bold">图例：</text>
  
  <rect x="70" y="910" width="50" height="25" class="entity" rx="3"/>
  <text x="95" y="922" class="text" font-size="10">实体</text>
  
  <ellipse cx="170" cy="922" rx="25" ry="12" class="key-attribute"/>
  <text x="170" y="922" class="text" font-size="9">主键属性</text>
  
  <ellipse cx="270" cy="922" rx="25" ry="12" class="attribute"/>
  <text x="270" y="922" class="text" font-size="9">普通属性</text>
  
  <polygon points="350,910 375,922 350,934 325,922" class="relationship"/>
  <text x="350" y="922" class="text" font-size="9">关系</text>
  
  <rect x="400" y="910" width="200" height="25" class="module-border"/>
  <text x="500" y="922" class="text" font-size="9">功能模块边界</text>
  
  <text x="650" y="922" class="text" font-size="10">说明：本图展示了重庆旅游管理系统的完整ER关系，包含用户管理、内容管理、活动管理、收藏管理等核心功能模块</text>
  
  <text x="60" y="950" class="text" font-size="10" font-weight="bold">设计特点：</text>
  <text x="150" y="950" class="text" font-size="10">1. 基于RuoYi框架的用户体系  2. 统一的收藏管理机制  3. 完整的活动生命周期管理  4. 灵活的内容管理体系  5. 标准化的审核流程</text>
</svg>